HIERARCHY
ROOT Hips
{
	OFFSET 0.000000 0.000000 0.000000 
	CHANNELS 6 Xposition Yposition Zposition Zrotation Yrotation Xrotation
	JOINT LeftUpLeg
	{
		OFFSET 1.363060 -1.794630 0.839290 
		CHANNELS 3 Zrotation Yrotation Xrotation
		JOINT LeftLeg
		{
			OFFSET 2.448110 -6.726130 0.000000 
			CHANNELS 3 Zrotation Yrotation Xrotation
			JOINT LeftFoot
			{
				OFFSET 2.562200 -7.039590 0.000000 
				CHANNELS 3 Zrotation Yrotation Xrotation
				JOINT LeftToeBase
				{
					OFFSET 0.157640 -0.433110 2.322550 
					CHANNELS 3 Zrotation Yrotation Xrotation
					End Site
					{
						OFFSET 0.000000 0.000000 0.000000 
					}
				}
			}
		}
	}
	JOINT RightUpLeg
	{
		OFFSET -1.305520 -1.794630 0.839290 
		CHANNELS 3 Zrotation Yrotation Xrotation
		JOINT RightLeg
		{
			OFFSET -2.542530 -6.985550 0.000000 
			CHANNELS 3 Zrotation Yrotation Xrotation
			JOINT RightFoot
			{
				OFFSET -2.568260 -7.056230 0.000000 
				CHANNELS 3 Zrotation Yrotation Xrotation
				JOINT RightToeBase
				{
					OFFSET -0.164730 -0.452590 2.363150 
					CHANNELS 3 Zrotation Yrotation Xrotation
					End Site
					{
						OFFSET 0.000000 0.000000 0.000000 
					}
				}
			}
		}
	}
	JOINT Spine
	{
		OFFSET 0.028270 2.035590 -0.193380 
		CHANNELS 3 Zrotation Yrotation Xrotation
		JOINT Spine1
		{
			OFFSET 0.056720 2.048850 -0.042750 
			CHANNELS 3 Zrotation Yrotation Xrotation
			JOINT Neck1
			{
				OFFSET -0.054170 1.746240 0.172020 
				CHANNELS 3 Zrotation Yrotation Xrotation
				JOINT Head
				{
					OFFSET 0.104070 1.761360 -0.123970 
					CHANNELS 3 Zrotation Yrotation Xrotation
					End Site
					{
						OFFSET 0.000000 0.000000 0.000000 
					}
				}
			}
			JOINT LeftArm
			{
				OFFSET 3.362410 1.200890 -0.311210 
				CHANNELS 3 Zrotation Yrotation Xrotation
				JOINT LeftForeArm
				{
					OFFSET 4.983000 -0.000000 -0.000000 
					CHANNELS 3 Zrotation Yrotation Xrotation
					JOINT LeftHand
					{
						OFFSET 3.483560 -0.000000 -0.000000 
						CHANNELS 3 Zrotation Yrotation Xrotation
						JOINT LeftHandIndex1
						{
							OFFSET 0.715260 -0.000000 -0.000000 
							CHANNELS 3 Zrotation Yrotation Xrotation
							End Site
							{
								OFFSET 0.000000 0.000000 0.000000 
							}
						}
					}
				}
			}
			JOINT RightArm
			{
				OFFSET -3.136600 1.374050 -0.404650 
				CHANNELS 3 Zrotation Yrotation Xrotation
				JOINT RightForeArm
				{
					OFFSET -5.241900 -0.000000 -0.000000 
					CHANNELS 3 Zrotation Yrotation Xrotation
					JOINT RightHand
					{
						OFFSET -3.444170 -0.000000 -0.000000 
						CHANNELS 3 Zrotation Yrotation Xrotation
						JOINT RightHandIndex1
						{
							OFFSET -0.622530 -0.000000 -0.000000 
							CHANNELS 3 Zrotation Yrotation Xrotation
							End Site
							{
								OFFSET 0.000000 0.000000 0.000000 
							}
						}
					}
				}
			}
		}
	}
}
MOTION
Frames: 10
Frame Time: 0.041667
2.985710 8.832993 3.084438 179.990903 2.347610 -120.542381 -0.678682 7.621851 -89.926828 35.775335 13.746519 142.567389 0.564525 14.399836 -25.265230 0.489700 -4.486900 -12.450700 30.249969 20.378758 -31.223604 -26.947009 -21.653431 112.837155 1.024118 -17.907859 0.202182 -2.766800 10.307600 -29.978600 -2.413362 -1.946090 -4.188246 -17.525852 0.648926 -8.223733 9.417828 -2.044531 -2.952758 0.148100 -0.174400 9.959400 -58.391378 -38.378808 37.059662 32.979005 -41.019270 -11.484543 2.064871 0.161665 36.677859 -7.125000 0.000000 0.000000 101.011909 40.937552 20.447973 -41.222030 51.902373 -18.109181 -1.552177 -1.580982 23.899590 7.125000 0.000000 0.000000 
2.975113 8.798173 2.973383 -179.646035 2.846642 -120.432251 -0.557891 6.919134 -89.542018 35.733654 13.876670 142.304372 0.535849 14.178100 -24.819669 0.506200 -4.560600 -12.659400 30.168296 20.295346 -30.663692 -26.856117 -21.622086 112.604843 1.058743 -18.189407 -0.427614 -2.729400 10.243600 -29.769300 -2.444853 -1.752811 -4.199849 -17.725661 0.745057 -8.071046 9.317158 -1.968072 -2.955860 0.085300 -0.141400 9.977600 -58.400055 -37.354919 37.256981 33.373450 -41.400796 -11.729022 2.034245 0.167624 35.919650 -7.125000 0.000000 0.000000 101.884757 40.486545 20.763333 -40.591205 51.698730 -17.712848 -1.582374 -1.546950 24.156716 7.125000 0.000000 0.000000 
2.961705 8.762921 2.862653 -179.265211 3.320075 -120.308853 -0.484274 6.360969 -89.066679 35.706013 13.972330 142.123847 0.518340 13.943469 -24.435756 0.529200 -4.661800 -12.946400 30.098021 20.190085 -30.123809 -26.769978 -21.588517 112.386318 1.090615 -18.448045 -1.043717 -2.715500 10.219600 -29.690800 -2.472358 -1.582877 -4.213246 -17.933020 0.828131 -7.935037 9.203061 -1.867454 -2.968514 0.017600 -0.098900 9.996200 -58.294096 -36.209792 37.294701 34.040926 -41.991816 -12.147343 2.008459 0.170540 35.213882 -7.125000 0.000000 0.000000 102.742219 40.049080 21.112122 -40.002689 51.510002 -17.343202 -1.611682 -1.512794 24.422080 7.125000 0.000000 0.000000 
2.945268 8.727237 2.752680 -178.852883 3.760353 -120.175724 -0.450930 5.989761 -88.510102 35.697397 14.022524 142.051427 0.506727 13.719814 -24.101130 0.555800 -4.775700 -13.270000 30.063610 20.081652 -29.583453 -26.691172 -21.551177 112.190989 1.119458 -18.672619 -1.713002 -2.750800 10.280300 -29.889100 -2.492923 -1.445881 -4.229985 -18.130420 0.889845 -7.829177 9.091390 -1.730267 -2.996674 -0.039500 -0.042500 10.006100 -58.103903 -34.935125 37.124107 34.997128 -42.790763 -12.758042 1.991710 0.169631 34.626028 -7.125000 0.000000 0.000000 103.590974 39.622775 21.538998 -39.452271 51.337169 -16.996024 -1.639883 -1.478732 24.713216 7.125000 0.000000 0.000000 
2.925371 8.690687 2.643788 -178.400432 4.151832 -120.036986 -0.446264 5.833313 -87.881385 35.710390 14.020540 142.101970 0.493621 13.552363 -23.806687 0.582300 -4.886000 -13.583800 30.087503 19.974977 -29.040963 -26.621866 -21.509706 112.026577 1.145408 -18.862297 -2.500643 -2.841800 10.434400 -30.395200 -2.503563 -1.346262 -4.249733 -18.308392 0.926707 -7.754161 8.989457 -1.555130 -3.041795 -0.080900 0.028500 10.005200 -57.848061 -33.554795 36.698211 36.256568 -43.788377 -13.582708 1.990218 0.161259 34.229617 -7.125000 0.000000 0.000000 104.434114 39.209299 22.057026 -38.923035 51.172222 -16.659705 -1.667261 -1.442839 25.085825 7.125000 0.000000 0.000000 
2.902122 8.652948 2.536086 -177.899291 4.492684 -119.892066 -0.461126 5.903883 -87.185803 35.741745 13.969813 142.259114 0.472481 13.483139 -23.547473 0.602700 -4.969700 -13.822000 30.184883 19.887937 -28.480526 -26.560436 -21.464990 111.888022 1.171006 -19.056429 -3.358381 -2.932300 10.584600 -30.891300 -2.507007 -1.275897 -4.268405 -18.483586 0.946576 -7.685205 8.889874 -1.355264 -3.105555 -0.113700 0.108800 10.000700 -57.540540 -32.144747 35.991667 37.823399 -44.959541 -14.636297 2.006092 0.142491 34.058694 -7.125000 0.000000 0.000000 105.268564 38.834472 22.657318 -38.413751 51.013167 -16.335371 -1.693347 -1.408497 25.482189 7.125000 0.000000 0.000000 
2.875521 8.614128 2.429681 -177.362402 4.785709 -119.747564 -0.521576 6.165649 -86.465980 35.784579 13.881587 142.491708 0.439044 13.542529 -23.322282 0.612200 -5.007900 -13.931200 30.339769 19.808328 -27.907224 -26.510285 -21.415251 111.785416 1.195933 -19.258676 -4.334582 -3.023400 10.732900 -31.384300 -2.499419 -1.242604 -4.292679 -18.626879 0.939995 -7.665562 8.799593 -1.129020 -3.179320 -0.136800 0.199500 9.987000 -57.215336 -30.702768 35.009474 39.696333 -46.267426 -15.930552 2.039759 0.111107 34.115438 -7.125000 0.000000 0.000000 106.073724 38.447323 23.347403 -37.932822 50.865603 -16.025914 -1.718449 -1.375386 25.875022 7.125000 0.000000 0.000000 
2.844594 8.574442 2.326737 -176.820464 5.044028 -119.609320 -0.681584 6.559786 -85.775382 35.830954 13.771787 142.762120 0.390748 13.789150 -23.178799 0.608800 -4.994200 -13.892100 30.502272 19.715849 -27.329823 -26.475550 -21.357897 111.728841 1.217237 -19.459366 -5.448840 -3.107500 10.867000 -31.832800 -2.484749 -1.241341 -4.319612 -18.745298 0.914668 -7.678364 8.714996 -0.904737 -3.256249 -0.157200 0.289900 9.978900 -56.864032 -29.336897 33.775796 41.851909 -47.656272 -17.459761 2.088611 0.065611 34.376065 -7.125000 0.000000 0.000000 106.814293 38.060399 24.073154 -37.482957 50.726780 -15.734502 -1.742048 -1.344387 26.232740 7.125000 0.000000 0.000000 
2.809559 8.535622 2.227145 -176.304058 5.251539 -119.485177 -0.945500 6.992795 -85.164345 35.872005 13.662613 143.020240 0.349047 14.181205 -23.252730 0.615500 -5.021200 -13.969200 30.657681 19.575715 -26.749958 -26.452549 -21.292107 111.707029 1.230939 -19.650066 -6.696474 -3.177000 10.976100 -32.199500 -2.457182 -1.271725 -4.350143 -18.797435 0.868060 -7.733137 8.627248 -0.683453 -3.328252 -0.178800 0.378400 9.979100 -56.524930 -28.111722 32.324376 44.248623 -49.064171 -19.203280 2.148341 0.006661 34.784437 -7.125000 0.000000 0.000000 107.411802 37.663739 24.821376 -37.082738 50.599549 -15.471486 -1.764470 -1.317835 26.476683 7.125000 0.000000 0.000000 
2.771171 8.500045 2.132094 -175.848890 5.403191 -119.383901 -1.309211 7.371509 -84.653845 35.903519 13.570164 143.238223 0.310061 14.675970 -23.479679 0.617100 -5.027500 -13.987000 30.786576 19.366867 -26.180424 -26.440741 -21.217404 111.718196 1.234117 -19.822637 -8.008272 -3.233200 11.063300 -32.493800 -2.413553 -1.339658 -4.386116 -18.745383 0.795859 -7.843724 8.542774 -0.472769 -3.383181 -0.199200 0.463000 9.992000 -56.201889 -27.091223 30.689563 46.814648 -50.418676 -21.113314 2.213553 -0.059503 35.271968 -7.125000 0.000000 0.000000 107.820843 37.238403 25.579764 -36.761175 50.498257 -15.252977 -1.785537 -1.296791 26.591526 7.125000 0.000000 0.000000 
